<?xml version="1.0" standalone="no"?>
<!DOCTYPE svg PUBLIC "-//W3C//DTD SVG 20010904//EN"
 "http://www.w3.org/TR/2001/REC-SVG-20010904/DTD/svg10.dtd">
<svg version="1.0" xmlns="http://www.w3.org/2000/svg"
 width="960.000000pt" height="960.000000pt" viewBox="0 0 960.000000 960.000000"
 preserveAspectRatio="xMidYMid meet">

<g transform="translate(0.000000,960.000000) scale(0.100000,-0.100000)"
fill="#000000" stroke="none">
<path d="M4610 7769 c-63 -5 -176 -18 -250 -29 -74 -11 -144 -21 -155 -21 -10
0 -25 -5 -32 -10 -6 -6 -17 -8 -23 -4 -10 6 -119 -62 -175 -111 -410 -353
-672 -684 -885 -1119 -105 -213 -169 -391 -154 -429 15 -40 41 -14 97 98 121
243 269 465 463 696 96 114 305 316 385 370 35 24 82 56 105 72 55 37 227 122
308 153 183 69 405 103 549 85 400 -52 660 -316 802 -814 60 -213 85 -424 85
-724 -1 -430 -62 -794 -197 -1162 -95 -259 -204 -443 -347 -586 -102 -102
-190 -158 -311 -201 -77 -27 -88 -28 -260 -27 -140 1 -192 4 -235 18 -30 9
-73 21 -96 26 -22 5 -56 16 -75 24 -19 8 -68 27 -109 42 -68 24 -289 130 -381
182 -20 11 -47 26 -60 34 -13 7 -26 15 -29 18 -10 10 -65 41 -82 47 -10 3 -18
9 -18 14 0 5 -8 9 -19 9 -10 0 -21 8 -24 19 -2 10 -18 24 -35 32 -17 7 -28 17
-26 21 3 4 1 8 -5 8 -16 0 -23 -19 -17 -46 9 -35 211 -230 333 -322 224 -170
457 -284 688 -338 124 -29 397 -27 523 5 378 94 696 334 973 735 342 495 539
1135 539 1756 0 438 -97 811 -283 1086 -66 98 -78 112 -84 96 -3 -7 -11 -18
-18 -25 -7 -7 -20 -29 -30 -47 -10 -19 -22 -38 -27 -41 -5 -3 -17 -34 -27 -70
-11 -39 -23 -64 -32 -64 -9 0 -13 -10 -11 -26 1 -15 -4 -32 -13 -39 -8 -7 -15
-21 -15 -31 0 -11 -3 -19 -6 -19 -20 0 -79 49 -135 112 -125 142 -265 276
-343 328 -184 123 -390 198 -591 215 -38 3 -81 7 -95 9 -14 2 -77 0 -140 -5z"/>
<path d="M3992 6767 c-23 -23 -36 -50 -44 -88 -16 -77 6 -141 84 -251 155
-217 267 -462 362 -798 68 -241 79 -314 73 -505 -9 -279 -65 -474 -179 -624
-10 -14 -15 -28 -10 -33 12 -12 92 15 164 55 130 74 197 163 289 382 95 230
123 351 139 615 10 171 0 471 -20 605 -15 97 -45 220 -70 285 -34 91 -64 149
-75 146 -5 -1 -41 -63 -80 -137 -90 -173 -94 -179 -125 -179 -31 0 -70 39
-166 165 -37 50 -96 125 -130 167 -34 43 -82 111 -106 153 -24 41 -50 74 -59
75 -8 0 -30 -15 -47 -33z"/>
<path d="M1912 3088 c-9 -12 -12 -107 -10 -399 l3 -384 116 -3 c106 -2 118 -1
149 20 18 13 43 36 54 51 20 27 21 40 21 327 0 286 -1 300 -21 326 -44 59 -65
67 -187 72 -91 4 -115 2 -125 -10z m222 -110 c14 -19 16 -63 16 -283 0 -143
-4 -265 -8 -271 -14 -21 -51 -34 -96 -34 l-46 0 0 305 0 305 59 0 c51 0 62 -3
75 -22z"/>
<path d="M2402 3090 c-12 -5 -27 -22 -33 -36 -6 -17 -9 -153 -7 -370 3 -320 4
-343 22 -363 18 -19 30 -21 153 -21 129 0 135 1 159 25 l25 25 -3 355 c-3 324
-5 356 -21 372 -15 15 -38 18 -145 20 -70 2 -137 -2 -150 -7z m216 -396 l-3
-299 -75 0 -75 0 -3 302 -2 302 72 3 c40 2 76 0 81 -3 4 -3 6 -140 5 -305z"/>
<path d="M2845 3088 c-3 -7 -4 -186 -3 -398 l3 -385 33 -3 c61 -6 63 0 62 212
-1 105 -1 257 -1 338 l1 146 60 4 c33 1 65 2 70 0 6 -2 10 -54 10 -122 0 -132
-1 -133 -74 -128 -66 4 -65 -2 15 -236 l74 -216 43 0 c26 0 45 5 48 13 3 8
-22 87 -55 178 -32 90 -57 167 -54 172 2 4 16 7 31 7 63 1 72 28 72 218 0 216
9 206 -184 210 -114 3 -147 1 -151 -10z"/>
<path d="M3301 3086 c-8 -9 -10 -122 -9 -397 l3 -384 135 0 135 0 3 43 3 42
-90 0 -91 0 0 135 0 134 78 3 77 3 3 43 3 42 -80 0 -81 0 0 125 c0 93 3 125
13 126 6 0 38 1 70 1 89 0 97 4 97 48 0 25 -5 40 -16 44 -9 3 -66 6 -129 6
-83 0 -116 -4 -124 -14z"/>
<path d="M3700 2699 l0 -400 31 3 30 3 0 158 0 157 109 0 c119 0 140 8 140 58
4 209 -1 396 -11 408 -9 11 -45 14 -155 14 l-144 0 0 -401z m250 160 l0 -180
-92 3 -93 3 -3 173 c-3 201 -10 189 112 184 l76 -4 0 -179z"/>
<path d="M4132 2703 l3 -398 33 -3 32 -3 0 370 0 371 95 0 96 0 -3 -147 -3
-148 -68 -3 c-60 -3 -68 -5 -62 -20 3 -9 33 -93 65 -187 32 -93 64 -185 70
-202 10 -28 17 -33 46 -33 l33 0 -43 123 c-24 67 -55 152 -69 189 -13 37 -22
70 -19 73 3 3 21 5 39 5 73 0 73 -1 73 203 0 129 -4 187 -12 195 -8 8 -58 12
-160 12 l-148 0 2 -397z"/>
<path d="M4600 3090 c-13 -8 -15 -62 -15 -385 0 -361 1 -377 19 -391 15 -10
53 -14 148 -14 115 0 130 2 148 20 19 19 20 33 20 384 0 318 -2 367 -16 380
-12 13 -41 16 -152 16 -75 0 -144 -5 -152 -10z m234 -46 c14 -5 16 -45 16
-345 l0 -339 -100 0 -100 0 0 340 0 339 83 4 c45 1 83 4 84 5 1 1 8 -1 17 -4z"/>
<path d="M5052 2703 l3 -398 105 -3 c121 -3 159 10 197 67 23 33 23 39 23 328
0 327 -3 345 -63 381 -30 19 -49 22 -151 22 l-116 0 2 -397z m235 313 l28 -24
3 -261 c2 -165 -1 -275 -8 -301 -14 -51 -48 -70 -130 -70 l-60 0 0 340 0 340
69 0 c59 0 74 -4 98 -24z"/>
<path d="M5510 2720 c0 -367 1 -381 20 -400 18 -18 33 -20 143 -20 95 0 128 4
145 16 l22 15 0 385 0 385 -32 -3 -33 -3 -3 -367 -2 -368 -95 0 -95 0 0 370 0
370 -35 0 -35 0 0 -380z"/>
<path d="M5992 3088 c-9 -9 -12 -109 -12 -390 l0 -378 26 -10 c14 -6 76 -10
138 -10 148 0 146 -2 146 148 l0 112 -30 0 -29 0 -3 -97 -3 -98 -92 -3 -93 -3
0 340 c0 212 4 341 10 343 5 2 48 2 95 0 l85 -3 0 -90 0 -89 30 0 30 0 0 108
c0 71 -4 112 -12 120 -17 17 -269 17 -286 0z"/>
<path d="M6382 3073 c3 -27 6 -28 66 -31 l62 -3 0 -369 0 -370 30 0 30 0 0
370 c0 289 3 370 13 371 6 1 27 0 44 -1 51 -2 73 8 73 36 l0 24 -161 0 -160 0
3 -27z"/>
<path d="M6790 2701 l0 -401 30 0 c22 0 31 5 35 23 3 12 4 191 3 397 l-3 375
-32 3 -33 3 0 -400z"/>
<path d="M7012 3088 c-15 -15 -17 -744 -2 -768 7 -12 38 -16 145 -18 119 -3
139 -1 156 14 18 16 19 35 19 385 0 321 -2 370 -16 383 -12 13 -41 16 -153 16
-93 0 -141 -4 -149 -12z m256 -385 l-3 -338 -102 -3 -103 -3 0 341 0 340 105
0 105 0 -2 -337z"/>
<path d="M7470 2699 l0 -400 28 3 27 3 5 290 c3 160 8 283 12 275 3 -8 47
-127 98 -265 50 -137 96 -262 102 -277 6 -17 18 -28 29 -28 18 0 19 15 19 400
l0 400 -30 0 -30 0 0 -282 c0 -156 -4 -278 -9 -272 -4 5 -35 86 -69 179 -134
375 -134 375 -159 375 l-23 0 0 -401z"/>
<path d="M2789 2198 c-4 -133 0 -122 -41 -129 -63 -10 -68 -20 -68 -130 0
-114 3 -118 85 -115 l50 3 0 193 c0 146 -3 194 -12 198 -8 2 -13 -6 -14 -20z
m-4 -253 l0 -90 -35 0 -35 0 -3 79 c-4 100 -1 108 40 104 l33 -3 0 -90z"/>
<path d="M4515 2208 c-3 -7 -4 -97 -3 -198 3 -157 5 -185 18 -185 13 0 15 28
15 194 0 147 -3 195 -12 198 -7 3 -15 -1 -18 -9z"/>
<path d="M4895 2208 c-3 -7 -4 -97 -3 -198 3 -157 5 -185 18 -185 12 0 16 19
18 103 l3 102 34 0 34 0 3 -102 c2 -84 6 -103 18 -103 12 0 15 19 17 105 2
131 -3 142 -62 133 l-44 -6 -3 78 c-2 52 -7 80 -15 83 -7 2 -15 -2 -18 -10z"/>
<path d="M6560 2020 c0 -171 2 -200 15 -200 13 0 15 29 15 200 0 171 -2 200
-15 200 -13 0 -15 -29 -15 -200z"/>
<path d="M7477 2214 c-4 -4 -7 -38 -7 -76 l0 -68 -35 0 c-59 0 -75 -26 -75
-123 0 -108 9 -122 84 -122 49 -1 57 2 62 20 3 11 4 99 2 195 -3 163 -9 196
-31 174z m-7 -270 l0 -95 -32 3 -33 3 -3 79 c-2 44 -1 85 2 93 3 7 19 13 36
13 l30 0 0 -96z"/>
<path d="M4616 2163 c-12 -12 -6 -43 9 -43 8 0 15 9 15 19 0 21 -13 34 -24 24z"/>
<path d="M5226 2163 c-12 -12 -6 -43 9 -43 8 0 15 9 15 19 0 21 -13 34 -24 24z"/>
<path d="M6786 2163 c-12 -12 -6 -43 9 -43 8 0 15 9 15 19 0 21 -13 34 -24 24z"/>
<path d="M7567 2164 c-16 -16 -7 -44 14 -44 15 0 20 5 17 22 -3 22 -19 33 -31
22z"/>
<path d="M3546 2143 c-3 -3 -6 -21 -6 -39 0 -19 -6 -34 -15 -38 -8 -3 -15 -10
-15 -16 0 -5 7 -10 15 -10 12 0 15 -18 15 -99 0 -106 8 -126 51 -119 31 4 36
26 7 30 -22 3 -23 7 -23 93 0 86 1 90 23 93 28 4 24 26 -6 30 -18 3 -22 10
-22 37 0 33 -11 51 -24 38z"/>
<path d="M5106 2143 c-3 -3 -6 -21 -6 -39 0 -19 -6 -34 -15 -38 -8 -3 -15 -10
-15 -16 0 -5 7 -10 15 -10 12 0 15 -18 15 -104 0 -111 2 -116 56 -116 15 0 24
6 24 15 0 9 -9 15 -25 15 l-26 0 3 93 c3 88 4 92 26 95 28 4 24 26 -6 30 -18
3 -22 10 -22 37 0 33 -11 51 -24 38z"/>
<path d="M6666 2143 c-3 -3 -6 -21 -6 -39 0 -19 -6 -34 -15 -38 -8 -3 -15 -10
-15 -16 0 -5 7 -10 15 -10 12 0 15 -18 15 -105 0 -103 0 -105 25 -111 28 -7
55 0 55 16 0 5 -11 10 -25 10 l-26 0 3 93 c3 88 4 92 26 95 28 4 24 26 -6 30
-18 3 -22 10 -22 37 0 33 -11 51 -24 38z"/>
<path d="M1917 2063 c-4 -3 -7 -23 -7 -44 0 -33 6 -43 50 -80 63 -53 69 -89
16 -89 -30 0 -35 3 -38 28 -4 33 -32 37 -36 5 -6 -43 14 -63 66 -63 56 0 72
12 72 56 0 27 -9 41 -50 76 -63 54 -68 88 -15 88 31 0 35 -3 35 -25 0 -16 6
-25 15 -25 18 0 21 50 3 68 -13 13 -100 17 -111 5z"/>
<path d="M2102 2058 c-18 -18 -16 -212 2 -227 8 -7 37 -11 68 -9 l53 3 3 114
c2 85 -1 117 -10 123 -20 12 -102 10 -116 -4z m98 -113 l0 -95 -40 0 -40 0 0
88 c0 49 3 92 7 95 3 4 21 7 40 7 l33 0 0 -95z"/>
<path d="M2294 2057 c-2 -7 -3 -62 -2 -123 l3 -109 68 0 68 -1 -3 120 c-2 85
-7 121 -15 124 -10 3 -13 -22 -13 -102 l0 -106 -40 0 -40 0 0 105 c0 65 -4
105 -10 105 -6 0 -13 -6 -16 -13z"/>
<path d="M2485 2060 c-2 -3 -3 -57 -2 -120 2 -95 5 -115 17 -115 12 0 16 19
18 103 l3 102 34 0 34 0 3 -102 c2 -84 6 -103 18 -103 12 0 16 19 18 103 1 56
-2 110 -7 120 -7 13 -23 17 -71 17 -34 0 -63 -2 -65 -5z"/>
<path d="M2987 2063 c-4 -3 -7 -23 -7 -44 0 -39 9 -52 66 -95 22 -17 34 -35
34 -50 0 -21 -5 -24 -34 -24 -30 0 -35 4 -38 27 -2 14 -9 28 -16 31 -10 3 -12
-7 -10 -39 l3 -44 48 -3 c58 -4 77 9 77 52 0 38 -4 43 -57 85 -30 22 -43 40
-43 57 0 21 5 24 35 24 31 0 35 -3 35 -25 0 -16 6 -25 15 -25 21 0 21 66 -1
74 -21 8 -99 8 -107 -1z"/>
<path d="M3157 2062 c-3 -4 7 -60 23 -123 24 -93 28 -123 20 -150 -13 -46 -13
-59 4 -59 9 0 25 46 50 148 44 182 45 187 26 187 -10 0 -19 -23 -30 -77 -8
-42 -18 -80 -22 -83 -7 -7 -20 36 -35 114 -8 42 -25 62 -36 43z"/>
<path d="M3352 2058 c-25 -25 -14 -67 31 -108 23 -22 45 -40 50 -40 4 0 7 -13
7 -30 0 -26 -3 -30 -29 -30 -24 0 -29 5 -35 31 -7 37 -30 34 -34 -5 -5 -40 14
-56 67 -56 55 0 71 12 71 56 0 26 -9 40 -50 74 -60 50 -69 90 -21 90 23 0 30
-5 33 -22 2 -13 10 -23 18 -23 19 0 25 41 10 61 -15 17 -101 19 -118 2z"/>
<path d="M3672 2062 c-9 -6 -12 -38 -10 -123 l3 -114 57 -3 c61 -3 80 11 74
54 -4 26 -30 24 -34 -3 -3 -19 -10 -23 -38 -23 -35 0 -35 0 -32 43 l3 42 50 5
50 5 3 42 c5 65 -10 83 -66 83 -26 0 -53 -4 -60 -8z m88 -63 c0 -39 -1 -40
-32 -37 -30 3 -33 6 -36 41 -3 36 -3 37 32 37 35 0 36 -1 36 -41z"/>
<path d="M3853 2054 c-2 -5 -2 -59 -1 -120 2 -89 6 -109 18 -109 12 0 16 19
18 103 3 101 3 102 27 102 14 0 28 1 33 3 4 1 9 -45 12 -103 4 -84 8 -105 20
-105 12 0 16 19 18 103 l3 102 34 0 35 0 0 -105 c0 -87 3 -105 15 -105 13 0
15 20 15 120 0 66 -3 120 -7 121 -50 7 -236 2 -240 -7z"/>
<path d="M4610 1945 c0 -104 2 -125 15 -125 13 0 15 21 15 125 0 104 -2 125
-15 125 -13 0 -15 -21 -15 -125z"/>
<path d="M4712 2054 c-14 -10 -17 -29 -17 -109 0 -109 9 -125 72 -125 30 0 33
-3 33 -30 0 -28 -3 -30 -35 -30 -24 0 -35 5 -35 15 0 8 -7 15 -16 15 -11 0
-14 -8 -12 -27 3 -27 6 -28 65 -31 77 -4 75 -9 71 187 l-3 144 -53 2 c-29 1
-60 -4 -70 -11z m88 -110 l0 -95 -32 3 -33 3 -3 79 c-2 44 -1 85 2 93 3 7 19
13 36 13 l30 0 0 -96z"/>
<path d="M5227 2063 c-4 -3 -7 -60 -7 -125 0 -98 3 -118 15 -118 13 0 15 21
15 125 0 114 -5 137 -23 118z"/>
<path d="M5313 2054 c-2 -5 -2 -59 -1 -120 2 -89 6 -109 18 -109 12 0 16 19
18 103 l3 102 34 0 35 0 0 -105 c0 -88 3 -105 15 -105 13 0 15 18 13 123 l-3
122 -64 0 c-36 0 -65 -5 -68 -11z"/>
<path d="M5528 2059 c-15 -8 -18 -26 -18 -114 0 -115 5 -125 69 -125 28 0 31
-3 31 -30 0 -28 -3 -30 -35 -30 -24 0 -35 5 -35 15 0 8 -7 15 -16 15 -11 0
-14 -8 -12 -27 3 -27 6 -28 62 -31 41 -2 62 1 67 10 5 7 9 82 9 166 l0 152
-32 0 c-18 0 -42 2 -53 5 -11 3 -28 0 -37 -6z m82 -115 l0 -95 -32 3 -33 3 -3
79 c-2 44 -1 85 2 93 3 7 19 13 36 13 l30 0 0 -96z"/>
<path d="M6060 1943 c0 -103 2 -123 15 -123 12 0 15 18 15 105 l0 105 40 0 40
0 0 -105 c0 -87 3 -105 15 -105 12 0 15 18 15 105 l0 105 35 0 34 0 3 -102 c2
-84 6 -103 18 -103 12 0 16 19 18 103 1 56 -1 110 -7 119 -7 14 -28 17 -125
17 l-116 1 0 -122z"/>
<path d="M6362 1948 l3 -123 68 0 67 -1 0 123 c0 103 -2 123 -15 123 -12 0
-15 -18 -15 -104 l0 -104 -35 -4 c-20 -2 -38 -2 -40 1 -3 2 -5 51 -5 108 0 86
-3 103 -15 103 -13 0 -15 -18 -13 -122z"/>
<path d="M6787 2063 c-4 -3 -7 -60 -7 -125 0 -98 3 -118 15 -118 13 0 15 21
15 125 0 114 -5 137 -23 118z"/>
<path d="M6873 2054 c-2 -5 -2 -59 -1 -120 2 -89 6 -109 18 -109 12 0 16 19
18 103 l3 102 34 0 35 0 0 -105 c0 -87 3 -105 15 -105 12 0 15 18 15 104 l0
104 28 4 c50 7 52 3 52 -108 0 -86 3 -104 15 -104 13 0 15 20 15 120 0 66 -3
120 -7 121 -53 7 -236 2 -240 -7z"/>
<path d="M7180 2051 c-14 -28 -13 -204 2 -219 13 -13 85 -16 112 -6 22 8 22
74 1 74 -9 0 -15 -9 -15 -25 0 -22 -4 -25 -35 -25 -35 0 -35 0 -35 45 l0 45
50 0 50 0 0 59 c0 67 -5 71 -75 71 -34 0 -47 -5 -55 -19z m98 -48 c-3 -35 -6
-38 -35 -41 -32 -3 -33 -2 -33 37 0 40 1 41 36 41 35 0 35 -1 32 -37z"/>
<path d="M7565 2058 c-3 -8 -4 -63 -3 -124 2 -89 6 -109 18 -109 12 0 15 20
15 119 0 87 -3 120 -12 123 -7 3 -15 -2 -18 -9z"/>
<path d="M7667 2064 c-14 -14 -8 -64 8 -64 8 0 15 9 15 20 0 16 7 20 35 20 34
0 35 -1 35 -40 l0 -40 -49 0 c-35 0 -51 -4 -55 -16 -11 -28 -6 -101 7 -112 6
-5 38 -9 70 -9 l58 1 -3 121 -3 120 -55 3 c-31 2 -59 0 -63 -4z m91 -166 c-3
-40 -5 -43 -35 -46 -33 -3 -35 0 -35 43 0 42 2 45 38 45 l35 0 -3 -42z"/>
<path d="M4260 1969 c0 -18 5 -20 47 -17 36 2 49 7 51 21 3 14 -4 17 -47 17
-45 0 -51 -3 -51 -21z"/>
<path d="M5805 1980 c-11 -18 6 -30 43 -30 43 0 68 13 58 29 -9 14 -93 15
-101 1z"/>
</g>
</svg>
